<mxfile host="app.diagrams.net" agent="Mozilla/5.0 (Windows NT 10.0; Win64; x64) AppleWebKit/537.36 (KHTML, like Gecko) Chrome/137.0.0.0 Safari/537.36" version="27.1.4">
  <diagram name="Page-1" id="fw77OP4jHFo_NsbE4y1-">
    <mxGraphModel dx="872" dy="465" grid="1" gridSize="10" guides="1" tooltips="1" connect="1" arrows="1" fold="1" page="1" pageScale="1" pageWidth="850" pageHeight="1100" math="0" shadow="0">
      <root>
        <mxCell id="0" />
        <mxCell id="1" parent="0" />
        <mxCell id="l7pPDtF0pk_3CXVqEelg-20" value="" style="rounded=1;whiteSpace=wrap;html=1;shadow=1;fillColor=#FFF4C3;" vertex="1" parent="1">
          <mxGeometry x="455" y="80" width="380" height="320" as="geometry" />
        </mxCell>
        <mxCell id="l7pPDtF0pk_3CXVqEelg-19" value="" style="rounded=1;whiteSpace=wrap;html=1;shadow=1;fillColor=#E6D0DE;" vertex="1" parent="1">
          <mxGeometry x="15" y="85" width="420" height="315" as="geometry" />
        </mxCell>
        <mxCell id="l7pPDtF0pk_3CXVqEelg-1" value="" style="shape=image;html=1;verticalAlign=top;verticalLabelPosition=bottom;labelBackgroundColor=#ffffff;imageAspect=0;aspect=fixed;image=https://cdn3.iconfinder.com/data/icons/brands-pack/240/graphql-128.png;shadow=1;" vertex="1" parent="1">
          <mxGeometry x="175" y="190" width="68" height="68" as="geometry" />
        </mxCell>
        <mxCell id="l7pPDtF0pk_3CXVqEelg-2" value="Mobile client" style="sketch=0;outlineConnect=0;fontColor=#232F3E;gradientColor=none;strokeColor=#232F3E;fillColor=#ffffff;dashed=0;verticalLabelPosition=bottom;verticalAlign=top;align=center;html=1;fontSize=12;fontStyle=0;aspect=fixed;shape=mxgraph.aws4.resourceIcon;resIcon=mxgraph.aws4.mobile_client;shadow=1;" vertex="1" parent="1">
          <mxGeometry x="35" y="150" width="60" height="60" as="geometry" />
        </mxCell>
        <mxCell id="l7pPDtF0pk_3CXVqEelg-3" value="Client" style="sketch=0;outlineConnect=0;fontColor=#232F3E;gradientColor=none;strokeColor=#232F3E;fillColor=#ffffff;dashed=0;verticalLabelPosition=bottom;verticalAlign=top;align=center;html=1;fontSize=12;fontStyle=0;aspect=fixed;shape=mxgraph.aws4.resourceIcon;resIcon=mxgraph.aws4.client;shadow=1;" vertex="1" parent="1">
          <mxGeometry x="35" y="250" width="60" height="60" as="geometry" />
        </mxCell>
        <mxCell id="l7pPDtF0pk_3CXVqEelg-5" value="" style="image;sketch=0;aspect=fixed;html=1;points=[];align=center;fontSize=12;image=img/lib/mscae/Azure_Database_for_MySQL_servers.svg;shadow=1;" vertex="1" parent="1">
          <mxGeometry x="334.86" y="210" width="53.2" height="70" as="geometry" />
        </mxCell>
        <mxCell id="l7pPDtF0pk_3CXVqEelg-6" value="" style="aspect=fixed;sketch=0;html=1;dashed=0;whitespace=wrap;verticalLabelPosition=bottom;verticalAlign=top;fillColor=#2875E2;strokeColor=#ffffff;points=[[0.005,0.63,0],[0.1,0.2,0],[0.9,0.2,0],[0.5,0,0],[0.995,0.63,0],[0.72,0.99,0],[0.5,1,0],[0.28,0.99,0]];shape=mxgraph.kubernetes.icon2;kubernetesLabel=1;prIcon=api;shadow=1;" vertex="1" parent="1">
          <mxGeometry x="625" y="170" width="72.92" height="70" as="geometry" />
        </mxCell>
        <mxCell id="l7pPDtF0pk_3CXVqEelg-7" value="&lt;span style=&quot;font-size: 18px;&quot;&gt;&lt;b&gt;GraphQL&lt;/b&gt;&lt;/span&gt;" style="text;html=1;align=center;verticalAlign=middle;whiteSpace=wrap;rounded=0;shadow=1;" vertex="1" parent="1">
          <mxGeometry x="175" y="120" width="60" height="30" as="geometry" />
        </mxCell>
        <mxCell id="l7pPDtF0pk_3CXVqEelg-8" value="&lt;span style=&quot;font-size: 18px;&quot;&gt;&lt;b&gt;REST&lt;/b&gt;&lt;/span&gt;" style="text;html=1;align=center;verticalAlign=middle;whiteSpace=wrap;rounded=0;shadow=1;" vertex="1" parent="1">
          <mxGeometry x="625" y="100" width="60" height="30" as="geometry" />
        </mxCell>
        <mxCell id="l7pPDtF0pk_3CXVqEelg-9" value="" style="aspect=fixed;sketch=0;html=1;dashed=0;whitespace=wrap;verticalLabelPosition=bottom;verticalAlign=top;fillColor=#2875E2;strokeColor=#ffffff;points=[[0.005,0.63,0],[0.1,0.2,0],[0.9,0.2,0],[0.5,0,0],[0.995,0.63,0],[0.72,0.99,0],[0.5,1,0],[0.28,0.99,0]];shape=mxgraph.kubernetes.icon2;kubernetesLabel=1;prIcon=api;shadow=1;" vertex="1" parent="1">
          <mxGeometry x="325" y="120" width="72.92" height="70" as="geometry" />
        </mxCell>
        <mxCell id="l7pPDtF0pk_3CXVqEelg-10" value="" style="dashed=0;outlineConnect=0;html=1;align=center;labelPosition=center;verticalLabelPosition=bottom;verticalAlign=top;shape=mxgraph.weblogos.json;shadow=1;" vertex="1" parent="1">
          <mxGeometry x="325" y="300" width="60" height="60" as="geometry" />
        </mxCell>
        <mxCell id="l7pPDtF0pk_3CXVqEelg-13" value="Mobile client" style="sketch=0;outlineConnect=0;fontColor=#232F3E;gradientColor=none;strokeColor=#232F3E;fillColor=#ffffff;dashed=0;verticalLabelPosition=bottom;verticalAlign=top;align=center;html=1;fontSize=12;fontStyle=0;aspect=fixed;shape=mxgraph.aws4.resourceIcon;resIcon=mxgraph.aws4.mobile_client;shadow=1;" vertex="1" parent="1">
          <mxGeometry x="505" y="130" width="60" height="60" as="geometry" />
        </mxCell>
        <mxCell id="l7pPDtF0pk_3CXVqEelg-14" value="Client" style="sketch=0;outlineConnect=0;fontColor=#232F3E;gradientColor=none;strokeColor=#232F3E;fillColor=#ffffff;dashed=0;verticalLabelPosition=bottom;verticalAlign=top;align=center;html=1;fontSize=12;fontStyle=0;aspect=fixed;shape=mxgraph.aws4.resourceIcon;resIcon=mxgraph.aws4.client;shadow=1;" vertex="1" parent="1">
          <mxGeometry x="505" y="230" width="60" height="60" as="geometry" />
        </mxCell>
        <mxCell id="l7pPDtF0pk_3CXVqEelg-16" value="" style="image;sketch=0;aspect=fixed;html=1;points=[];align=center;fontSize=12;image=img/lib/mscae/Azure_Database_for_MySQL_servers.svg;shadow=1;" vertex="1" parent="1">
          <mxGeometry x="764.86" y="170" width="53.2" height="70" as="geometry" />
        </mxCell>
        <mxCell id="l7pPDtF0pk_3CXVqEelg-17" value="" style="aspect=fixed;sketch=0;html=1;dashed=0;whitespace=wrap;verticalLabelPosition=bottom;verticalAlign=top;fillColor=#2875E2;strokeColor=#ffffff;points=[[0.005,0.63,0],[0.1,0.2,0],[0.9,0.2,0],[0.5,0,0],[0.995,0.63,0],[0.72,0.99,0],[0.5,1,0],[0.28,0.99,0]];shape=mxgraph.kubernetes.icon2;kubernetesLabel=1;prIcon=api;shadow=1;" vertex="1" parent="1">
          <mxGeometry x="755" y="80" width="72.92" height="70" as="geometry" />
        </mxCell>
        <mxCell id="l7pPDtF0pk_3CXVqEelg-18" value="" style="dashed=0;outlineConnect=0;html=1;align=center;labelPosition=center;verticalLabelPosition=bottom;verticalAlign=top;shape=mxgraph.weblogos.json;shadow=1;" vertex="1" parent="1">
          <mxGeometry x="755" y="270" width="60" height="60" as="geometry" />
        </mxCell>
        <mxCell id="l7pPDtF0pk_3CXVqEelg-22" value="" style="endArrow=classic;html=1;rounded=0;entryX=0.015;entryY=0.618;entryDx=0;entryDy=0;entryPerimeter=0;shadow=1;strokeWidth=3;" edge="1" parent="1" target="l7pPDtF0pk_3CXVqEelg-1">
          <mxGeometry width="50" height="50" relative="1" as="geometry">
            <mxPoint x="115" y="230" as="sourcePoint" />
            <mxPoint x="165" y="180" as="targetPoint" />
          </mxGeometry>
        </mxCell>
        <mxCell id="l7pPDtF0pk_3CXVqEelg-23" value="" style="endArrow=classic;html=1;rounded=0;entryX=0.096;entryY=0.686;entryDx=0;entryDy=0;entryPerimeter=0;shadow=1;strokeWidth=3;" edge="1" parent="1" target="l7pPDtF0pk_3CXVqEelg-9">
          <mxGeometry width="50" height="50" relative="1" as="geometry">
            <mxPoint x="235" y="220" as="sourcePoint" />
            <mxPoint x="285" y="170" as="targetPoint" />
          </mxGeometry>
        </mxCell>
        <mxCell id="l7pPDtF0pk_3CXVqEelg-24" value="" style="endArrow=classic;html=1;rounded=0;entryX=0.059;entryY=0.557;entryDx=0;entryDy=0;entryPerimeter=0;exitX=0.956;exitY=0.603;exitDx=0;exitDy=0;exitPerimeter=0;shadow=1;strokeWidth=3;" edge="1" parent="1" source="l7pPDtF0pk_3CXVqEelg-1" target="l7pPDtF0pk_3CXVqEelg-5">
          <mxGeometry width="50" height="50" relative="1" as="geometry">
            <mxPoint x="235" y="220" as="sourcePoint" />
            <mxPoint x="285" y="170" as="targetPoint" />
          </mxGeometry>
        </mxCell>
        <mxCell id="l7pPDtF0pk_3CXVqEelg-25" value="" style="endArrow=classic;html=1;rounded=0;shadow=1;strokeWidth=3;" edge="1" parent="1" target="l7pPDtF0pk_3CXVqEelg-10">
          <mxGeometry width="50" height="50" relative="1" as="geometry">
            <mxPoint x="235" y="230" as="sourcePoint" />
            <mxPoint x="285" y="180" as="targetPoint" />
          </mxGeometry>
        </mxCell>
        <mxCell id="l7pPDtF0pk_3CXVqEelg-27" value="" style="endArrow=classic;html=1;rounded=0;shadow=1;entryX=0.005;entryY=0.63;entryDx=0;entryDy=0;entryPerimeter=0;strokeWidth=3;" edge="1" parent="1" target="l7pPDtF0pk_3CXVqEelg-6">
          <mxGeometry width="50" height="50" relative="1" as="geometry">
            <mxPoint x="570" y="214" as="sourcePoint" />
            <mxPoint x="625" y="160" as="targetPoint" />
          </mxGeometry>
        </mxCell>
        <mxCell id="l7pPDtF0pk_3CXVqEelg-28" value="" style="endArrow=classic;html=1;rounded=0;shadow=1;strokeWidth=3;" edge="1" parent="1" target="l7pPDtF0pk_3CXVqEelg-17">
          <mxGeometry width="50" height="50" relative="1" as="geometry">
            <mxPoint x="689.9200000000001" y="183.76651699807564" as="sourcePoint" />
            <mxPoint x="747" y="138" as="targetPoint" />
          </mxGeometry>
        </mxCell>
        <mxCell id="l7pPDtF0pk_3CXVqEelg-29" value="" style="endArrow=classic;html=1;rounded=0;entryX=0.059;entryY=0.571;entryDx=0;entryDy=0;entryPerimeter=0;shadow=1;strokeWidth=3;" edge="1" parent="1" target="l7pPDtF0pk_3CXVqEelg-16">
          <mxGeometry width="50" height="50" relative="1" as="geometry">
            <mxPoint x="695" y="210" as="sourcePoint" />
            <mxPoint x="745" y="160" as="targetPoint" />
          </mxGeometry>
        </mxCell>
        <mxCell id="l7pPDtF0pk_3CXVqEelg-30" value="" style="endArrow=classic;html=1;rounded=0;exitX=0.72;exitY=0.99;exitDx=0;exitDy=0;exitPerimeter=0;shadow=1;strokeWidth=3;" edge="1" parent="1" source="l7pPDtF0pk_3CXVqEelg-6" target="l7pPDtF0pk_3CXVqEelg-18">
          <mxGeometry width="50" height="50" relative="1" as="geometry">
            <mxPoint x="695" y="210" as="sourcePoint" />
            <mxPoint x="745" y="160" as="targetPoint" />
          </mxGeometry>
        </mxCell>
        <mxCell id="l7pPDtF0pk_3CXVqEelg-32" value="&lt;font face=&quot;Comic Sans MS&quot; style=&quot;font-size: 36px;&quot;&gt;&lt;b style=&quot;&quot;&gt;GraphQL vs REST&lt;/b&gt;&lt;/font&gt;" style="text;html=1;align=center;verticalAlign=middle;whiteSpace=wrap;rounded=0;shadow=0;" vertex="1" parent="1">
          <mxGeometry x="175" y="10" width="500" height="30" as="geometry" />
        </mxCell>
        <mxCell id="l7pPDtF0pk_3CXVqEelg-33" value="" style="html=1;points=[];perimeter=orthogonalPerimeter;fillColor=strokeColor;shadow=1;" vertex="1" parent="1">
          <mxGeometry x="444" y="75" width="5" height="335" as="geometry" />
        </mxCell>
      </root>
    </mxGraphModel>
  </diagram>
</mxfile>
